<svg width="198" height="66" viewBox="0 0 198 66" fill="none" xmlns="http://www.w3.org/2000/svg">
<g clip-path="url(#clip0_2211_67234)">
<path d="M51.4605 44.2709C51.4689 47.633 50.7519 50.9575 49.3583 54.0182C47.9648 57.0788 45.9273 59.8039 43.3848 62.0078C41.7182 63.4705 42.8596 66.2082 45.079 65.9875C46.5628 65.8427 48.0307 65.5656 49.4651 65.1595C53.3162 64.0751 56.8172 62.0059 59.6223 59.1566C62.4273 56.3073 64.4392 52.7763 65.4591 48.9128C66.4292 45.4047 66.574 41.7203 65.8821 38.1471C65.1902 34.5739 63.6805 31.2089 61.4709 28.3147C59.2613 25.4205 56.4115 23.0756 53.1442 21.4631C49.8768 19.8506 46.2804 19.0142 42.6357 19.019C41.6707 19.0184 40.7063 19.0736 39.7476 19.1847C37.5532 19.4606 36.9977 22.3887 38.9461 23.4402C46.4111 27.4473 51.4661 35.2658 51.4661 44.2709H51.4605ZM21.8466 51.2061C18.4724 51.2167 15.1351 50.5046 12.0599 49.1177C8.98473 47.7309 6.24318 45.7018 4.02018 43.167C2.54984 41.5111 -0.200122 42.6426 0.0237444 44.8504C0.168087 46.3276 0.44559 47.7889 0.85288 49.2164C3.04732 57.0072 9.32112 63.0869 17.1786 65.1292C33.0067 69.2467 47.2209 57.4763 47.2209 42.4191C47.2209 41.4532 47.1656 40.4873 47.0551 39.5489C46.7787 37.3632 43.8353 36.8113 42.7794 38.7486C40.7418 42.5188 37.7197 45.6677 34.0342 47.861C30.3486 50.0545 26.1371 51.2103 21.8466 51.2061ZM14.8708 21.7291C14.8631 18.3666 15.581 15.0418 16.9755 11.9811C18.37 8.92049 20.4084 6.19569 22.9521 3.99217C24.6186 2.52673 23.4772 -0.208183 21.2579 0.0125981C19.7663 0.15851 18.2892 0.426182 16.8413 0.812929C12.9937 1.90293 9.49628 3.97401 6.693 6.82256C3.88972 9.67111 1.87706 13.1991 0.85288 17.0597C-0.117176 20.5677 -0.261942 24.2522 0.429891 27.8253C1.12172 31.3985 2.63142 34.7635 4.84108 37.6577C7.05073 40.5519 9.90051 42.8968 13.1678 44.5093C16.4352 46.1219 20.0316 46.9583 23.6762 46.9534C24.6491 46.9534 25.622 46.8981 26.5643 46.7877C28.7588 46.5118 29.3143 43.5809 27.3659 42.5322C23.5911 40.521 20.4348 37.5229 18.2344 33.8587C16.034 30.1945 14.8696 26.0018 14.8708 21.7291ZM44.4986 14.7939C47.8727 14.7833 51.21 15.4955 54.2852 16.8823C57.3604 18.2691 60.102 20.2982 62.325 22.833C63.7898 24.4889 66.5425 23.3574 66.3187 21.1496C66.1745 19.6714 65.8969 18.2092 65.4895 16.7809C63.2923 8.9901 57.0185 2.91311 49.1583 0.868124C33.3578 -3.27703 19.1436 8.49334 19.1436 23.5506C19.1436 24.5165 19.1988 25.4825 19.3094 26.4235C19.5858 28.6065 22.5375 29.1585 23.5905 27.2239C25.6258 23.4605 28.644 20.3178 32.3243 18.1298C36.0046 15.9417 40.2097 14.7899 44.493 14.7966L44.4986 14.7939Z" fill="#35CC33"/>
<path d="M89.6022 36.932L85.9724 30.337H84.953V36.932H80.7017V19.4614H87.837C89.2127 19.4614 90.3812 19.702 91.3425 20.1831C92.3204 20.6643 93.0498 21.3279 93.5304 22.1741C94.011 23.0036 94.2514 23.9328 94.2514 24.9614C94.2514 26.1228 93.9199 27.1597 93.2569 28.0723C92.6105 28.9848 91.6491 29.6319 90.3729 30.0135L94.4006 36.932H89.6022ZM84.953 27.3257H87.5884C88.3674 27.3257 88.9475 27.1348 89.3287 26.7533C89.7265 26.3717 89.9254 25.8325 89.9254 25.1356C89.9254 24.472 89.7265 23.9493 89.3287 23.5678C88.9475 23.1862 88.3674 22.9954 87.5884 22.9954H84.953V27.3257ZM108.009 29.7646C108.009 30.1628 107.984 30.5776 107.934 31.0089H98.3124C98.3788 31.8717 98.6522 32.5353 99.1329 32.9999C99.6305 33.4479 100.235 33.6718 100.948 33.6718C102.008 33.6718 102.746 33.2239 103.161 32.3279H107.686C107.453 33.2405 107.03 34.0618 106.418 34.7917C105.821 35.5217 105.066 36.0941 104.155 36.5089C103.243 36.9238 102.224 37.1311 101.097 37.1311C99.7379 37.1311 98.5279 36.8407 97.4671 36.2601C96.4063 35.6794 95.5776 34.8498 94.9809 33.7714C94.3842 32.693 94.0859 31.432 94.0859 29.9886C94.0859 28.5451 94.376 27.2842 94.9561 26.2058C95.5528 25.1274 96.3814 24.2977 97.4423 23.7171C98.5031 23.1364 99.721 22.846 101.097 22.846C102.44 22.846 103.633 23.1281 104.677 23.6922C105.722 24.2563 106.533 25.061 107.114 26.1062C107.711 27.1515 108.009 28.3709 108.009 29.7646ZM103.658 28.6447C103.658 27.9147 103.41 27.3339 102.912 26.9026C102.415 26.4713 101.793 26.2555 101.048 26.2555C100.335 26.2555 99.7299 26.4629 99.2323 26.8777C98.7517 27.2925 98.4533 27.8815 98.3373 28.6447H103.658ZM107.417 29.9886C107.417 28.5451 107.708 27.2842 108.287 26.2058C108.884 25.1274 109.705 24.2977 110.749 23.7171C111.81 23.1364 113.019 22.846 114.379 22.846C116.119 22.846 117.569 23.3023 118.729 24.2148C119.906 25.1274 120.677 26.4131 121.042 28.0723H116.517C116.136 27.0104 115.398 26.4795 114.304 26.4795C113.525 26.4795 112.904 26.7864 112.439 27.4003C111.975 27.9976 111.743 28.8604 111.743 29.9886C111.743 31.1167 111.975 31.9878 112.439 32.6017C112.904 33.199 113.525 33.4976 114.304 33.4976C115.398 33.4976 116.136 32.9667 116.517 31.9049H121.042C120.677 33.5308 119.906 34.8084 118.729 35.7374C117.553 36.6665 116.102 37.1311 114.379 37.1311C113.019 37.1311 111.81 36.8407 110.749 36.2601C109.705 35.6794 108.884 34.8498 108.287 33.7714C107.708 32.693 107.417 31.432 107.417 29.9886ZM135.498 23.0451L126.797 43.527H122.222L125.404 36.4592L119.761 23.0451H124.509L127.716 31.7307L130.899 23.0451H135.498Z" fill="#35CC33"/>
<path d="M147.601 19.4614V22.8709H142.977V36.9319H138.725V22.8709H134.101V19.4614H147.601ZM156.274 22.8957C157.865 22.8957 159.141 23.4266 160.103 24.4885C161.064 25.5338 161.545 26.9772 161.545 28.8188V36.9319H157.318V29.3912C157.318 28.4621 157.077 27.7404 156.597 27.2261C156.117 26.7117 155.47 26.4546 154.658 26.4546C153.845 26.4546 153.199 26.7117 152.719 27.2261C152.238 27.7404 151.998 28.4621 151.998 29.3912V36.9319H147.746V18.5157H151.998V24.9116C152.428 24.2977 153.017 23.8083 153.763 23.4433C154.509 23.0782 155.346 22.8957 156.274 22.8957ZM164.648 21.6016C163.902 21.6016 163.289 21.3859 162.809 20.9546C162.344 20.5066 162.112 19.9591 162.112 19.312C162.112 18.6484 162.344 18.1008 162.809 17.6695C163.289 17.2215 163.902 16.9976 164.648 16.9976C165.377 16.9976 165.974 17.2215 166.438 17.6695C166.919 18.1008 167.159 18.6484 167.159 19.312C167.159 19.9591 166.919 20.5066 166.438 20.9546C165.974 21.3859 165.377 21.6016 164.648 21.6016ZM166.762 23.0451V36.9319H162.51V23.0451H166.762ZM176.307 22.8957C177.93 22.8957 179.223 23.4266 180.185 24.4885C181.163 25.5338 181.652 26.9772 181.652 28.8188V36.9319H177.425V29.3912C177.425 28.4621 177.185 27.7404 176.704 27.2261C176.223 26.7117 175.577 26.4546 174.765 26.4546C173.953 26.4546 173.306 26.7117 172.826 27.2261C172.345 27.7404 172.105 28.4621 172.105 29.3912V36.9319H167.853V23.0451H172.105V24.8867C172.535 24.2728 173.115 23.7917 173.845 23.4433C174.574 23.0782 175.395 22.8957 176.307 22.8957ZM187.887 22.846C188.866 22.846 189.719 23.0451 190.448 23.4433C191.194 23.8415 191.766 24.3641 192.163 25.0111V23.0451H196.415V36.9071C196.415 38.1846 196.158 39.3377 195.644 40.3663C195.147 41.4116 194.376 42.2411 193.332 42.855C192.305 43.4689 191.02 43.7758 189.478 43.7758C187.424 43.7758 185.758 43.2864 184.481 42.3075C183.205 41.3452 182.476 40.0345 182.293 38.3754H186.495C186.628 38.9063 186.942 39.3211 187.44 39.6197C187.937 39.935 188.55 40.0926 189.279 40.0926C190.159 40.0926 190.855 39.8355 191.368 39.3211C191.899 38.8234 192.163 38.0187 192.163 36.9071V34.941C191.75 35.5881 191.178 36.1189 190.448 36.5338C189.719 36.9319 188.866 37.131 187.887 37.131C186.744 37.131 185.708 36.8407 184.779 36.26C183.852 35.6627 183.114 34.8248 182.567 33.7464C182.037 32.6514 181.771 31.3904 181.771 29.9636C181.771 28.5368 182.037 27.2841 182.567 26.2057C183.114 25.1273 183.852 24.2977 184.779 23.717C185.708 23.1364 186.744 22.846 187.887 22.846ZM192.163 29.9885C192.163 28.9266 191.865 28.0888 191.268 27.4749C190.689 26.861 189.976 26.5541 189.13 26.5541C188.285 26.5541 187.564 26.861 186.967 27.4749C186.388 28.0722 186.097 28.9017 186.097 29.9636C186.097 31.0255 186.388 31.8717 186.967 32.5021C187.564 33.116 188.285 33.4229 189.13 33.4229C189.976 33.4229 190.689 33.116 191.268 32.5021C191.865 31.8882 192.163 31.0504 192.163 29.9885Z" fill="#FFCD29"/>
<path d="M101.13 53.8552L100.073 52.0394H99.3731V53.8552H98.7939V49.4146H100.226C100.561 49.4146 100.844 49.4719 101.072 49.5866C101.306 49.7013 101.48 49.8563 101.595 50.0517C101.709 50.2471 101.767 50.4701 101.767 50.7206C101.767 51.0265 101.677 51.2961 101.499 51.5298C101.325 51.7634 101.062 51.9184 100.71 51.9949L101.823 53.8552H101.13ZM99.3731 51.5744H100.226C100.54 51.5744 100.775 51.4979 100.932 51.345C101.089 51.1878 101.168 50.9798 101.168 50.7206C101.168 50.4573 101.089 50.2535 100.932 50.109C100.78 49.9646 100.544 49.8924 100.226 49.8924H99.3731V51.5744ZM106.135 51.9757C106.135 52.0861 106.128 52.203 106.115 52.3261H103.328C103.349 52.6702 103.466 52.9399 103.678 53.1353C103.895 53.3264 104.155 53.422 104.461 53.422C104.711 53.422 104.919 53.3646 105.085 53.2499C105.254 53.131 105.374 52.9739 105.441 52.7785H106.065C105.971 53.1141 105.785 53.388 105.505 53.6004C105.224 53.8085 104.876 53.9125 104.461 53.9125C104.131 53.9125 103.833 53.8382 103.57 53.6895C103.311 53.5409 103.107 53.3307 102.959 53.0588C102.811 52.7828 102.736 52.4642 102.736 52.1032C102.736 51.7421 102.808 51.4257 102.953 51.1539C103.097 50.882 103.298 50.674 103.558 50.5295C103.82 50.3809 104.122 50.3065 104.461 50.3065C104.792 50.3065 105.085 50.3787 105.34 50.5231C105.594 50.6676 105.789 50.8672 105.925 51.122C106.065 51.3726 106.135 51.6572 106.135 51.9757ZM105.537 51.8547C105.537 51.6338 105.488 51.4449 105.391 51.2877C105.293 51.1263 105.159 51.0052 104.99 50.9245C104.824 50.8396 104.64 50.7971 104.436 50.7971C104.142 50.7971 103.893 50.8906 103.685 51.0774C103.481 51.2643 103.364 51.5234 103.335 51.8547H105.537ZM107.765 51.0073C107.88 50.8077 108.05 50.6421 108.274 50.5104C108.503 50.3745 108.769 50.3065 109.07 50.3065C109.379 50.3065 109.66 50.3809 109.91 50.5295C110.165 50.6781 110.364 50.8884 110.508 51.1602C110.652 51.4278 110.725 51.74 110.725 52.0968C110.725 52.4493 110.652 52.7637 110.508 53.0397C110.364 53.3157 110.165 53.5303 109.91 53.6832C109.66 53.8361 109.379 53.9125 109.07 53.9125C108.773 53.9125 108.51 53.8467 108.28 53.715C108.056 53.5791 107.884 53.4113 107.765 53.2117V55.5117H107.186V50.3639H107.765V51.0073ZM110.133 52.0968C110.133 51.8335 110.079 51.6041 109.974 51.4087C109.868 51.2133 109.723 51.0647 109.54 50.9627C109.362 50.8608 109.166 50.8098 108.949 50.8098C108.737 50.8098 108.539 50.8629 108.357 50.9691C108.179 51.071 108.035 51.2219 107.924 51.4215C107.818 51.6169 107.765 51.844 107.765 52.1032C107.765 52.3665 107.818 52.598 107.924 52.7976C108.035 52.993 108.179 53.1437 108.357 53.2499C108.539 53.3519 108.737 53.4028 108.949 53.4028C109.166 53.4028 109.362 53.3519 109.54 53.2499C109.723 53.1437 109.868 52.993 109.974 52.7976C110.079 52.598 110.133 52.3644 110.133 52.0968ZM113.295 53.9125C112.967 53.9125 112.671 53.8382 112.404 53.6895C112.14 53.5409 111.932 53.3307 111.78 53.0588C111.631 52.7828 111.557 52.4642 111.557 52.1032C111.557 51.7464 111.633 51.4321 111.786 51.1602C111.943 50.8842 112.155 50.674 112.422 50.5295C112.69 50.3809 112.989 50.3065 113.32 50.3065C113.651 50.3065 113.95 50.3809 114.217 50.5295C114.485 50.674 114.695 50.882 114.847 51.1539C115.004 51.4257 115.083 51.7421 115.083 52.1032C115.083 52.4642 115.002 52.7828 114.841 53.0588C114.684 53.3307 114.47 53.5409 114.199 53.6895C113.927 53.8382 113.626 53.9125 113.295 53.9125ZM113.295 53.4028C113.502 53.4028 113.697 53.354 113.88 53.2563C114.062 53.1587 114.209 53.0121 114.319 52.8167C114.434 52.6213 114.491 52.3835 114.491 52.1032C114.491 51.8228 114.436 51.585 114.326 51.3896C114.215 51.1942 114.071 51.0498 113.893 50.9564C113.714 50.8587 113.521 50.8098 113.313 50.8098C113.102 50.8098 112.907 50.8587 112.728 50.9564C112.554 51.0498 112.414 51.1942 112.308 51.3896C112.202 51.585 112.149 51.8228 112.149 52.1032C112.149 52.3878 112.2 52.6277 112.302 52.8231C112.408 53.0185 112.548 53.165 112.722 53.2627C112.896 53.3562 113.087 53.4028 113.295 53.4028ZM116.71 50.9309C116.812 50.7313 116.956 50.5762 117.143 50.4658C117.334 50.3554 117.565 50.3002 117.836 50.3002V50.899H117.684C117.035 50.899 116.71 51.2515 116.71 51.9566V53.8552H116.131V50.3639H116.71V50.9309ZM119.498 50.8417V52.8995C119.498 53.0695 119.534 53.1905 119.607 53.2627C119.678 53.3307 119.803 53.3646 119.981 53.3646H120.408V53.8552H119.886C119.564 53.8552 119.322 53.7808 119.161 53.6322C119 53.4836 118.919 53.2393 118.919 52.8995V50.8417H118.467V50.3639H118.919V49.4847H119.498V50.3639H120.408V50.8417H119.498ZM121.994 53.0524L121.282 54.7663H120.893L121.358 53.0524H121.994ZM124.711 52.1032C124.711 51.7421 124.784 51.4278 124.928 51.1602C125.072 50.8884 125.271 50.6781 125.526 50.5295C125.785 50.3809 126.08 50.3065 126.411 50.3065C126.839 50.3065 127.191 50.4106 127.467 50.6187C127.747 50.8269 127.932 51.1156 128.021 51.4852H127.397C127.338 51.2728 127.221 51.105 127.047 50.9819C126.877 50.8587 126.665 50.7971 126.411 50.7971C126.08 50.7971 125.812 50.9118 125.609 51.1411C125.405 51.3662 125.303 51.687 125.303 52.1032C125.303 52.5236 125.405 52.8486 125.609 53.0779C125.812 53.3073 126.08 53.422 126.411 53.422C126.665 53.422 126.877 53.3625 127.047 53.2436C127.217 53.1246 127.334 52.9548 127.397 52.7339H128.021C127.927 53.0907 127.741 53.3774 127.461 53.594C127.18 53.8063 126.83 53.9125 126.411 53.9125C126.08 53.9125 125.785 53.8382 125.526 53.6895C125.271 53.5409 125.072 53.3307 124.928 53.0588C124.784 52.7869 124.711 52.4684 124.711 52.1032ZM129.66 49.1406V53.8552H129.08V49.1406H129.66ZM134.115 51.9757C134.115 52.0861 134.109 52.203 134.096 52.3261H131.309C131.329 52.6702 131.447 52.9399 131.659 53.1353C131.874 53.3264 132.136 53.422 132.441 53.422C132.692 53.422 132.9 53.3646 133.065 53.2499C133.235 53.131 133.353 52.9739 133.422 52.7785H134.045C133.952 53.1141 133.765 53.388 133.485 53.6004C133.205 53.8085 132.857 53.9125 132.441 53.9125C132.11 53.9125 131.814 53.8382 131.55 53.6895C131.292 53.5409 131.088 53.3307 130.94 53.0588C130.79 52.7828 130.717 52.4642 130.717 52.1032C130.717 51.7421 130.788 51.4257 130.933 51.1539C131.077 50.882 131.279 50.674 131.537 50.5295C131.801 50.3809 132.102 50.3065 132.441 50.3065C132.772 50.3065 133.065 50.3787 133.319 50.5231C133.574 50.6676 133.77 50.8672 133.905 51.122C134.045 51.3726 134.115 51.6572 134.115 51.9757ZM133.517 51.8547C133.517 51.6338 133.469 51.4449 133.37 51.2877C133.273 51.1263 133.139 51.0052 132.969 50.9245C132.804 50.8396 132.619 50.7971 132.415 50.7971C132.123 50.7971 131.872 50.8906 131.665 51.0774C131.461 51.2643 131.344 51.5234 131.314 51.8547H133.517ZM134.949 52.0968C134.949 51.74 135.022 51.4278 135.166 51.1602C135.31 50.8884 135.508 50.6781 135.758 50.5295C136.012 50.3809 136.295 50.3065 136.604 50.3065C136.91 50.3065 137.175 50.3723 137.4 50.504C137.625 50.6357 137.792 50.8014 137.903 51.001V50.3639H138.489V53.8552H137.903V53.2053C137.789 53.4092 137.616 53.5791 137.388 53.715C137.163 53.8467 136.899 53.9125 136.598 53.9125C136.289 53.9125 136.008 53.8361 135.758 53.6832C135.508 53.5303 135.31 53.3157 135.166 53.0397C135.022 52.7637 134.949 52.4493 134.949 52.0968ZM137.903 52.1032C137.903 51.8399 137.85 51.6105 137.744 51.4151C137.637 51.2197 137.493 51.071 137.311 50.9691C137.133 50.8629 136.935 50.8098 136.719 50.8098C136.503 50.8098 136.306 50.8608 136.127 50.9627C135.949 51.0647 135.807 51.2133 135.701 51.4087C135.595 51.6041 135.542 51.8335 135.542 52.0968C135.542 52.3644 135.595 52.598 135.701 52.7976C135.807 52.993 135.949 53.1437 136.127 53.2499C136.306 53.3519 136.503 53.4028 136.719 53.4028C136.935 53.4028 137.133 53.3519 137.311 53.2499C137.493 53.1437 137.637 52.993 137.744 52.7976C137.85 52.598 137.903 52.3665 137.903 52.1032ZM141.453 50.3002C141.878 50.3002 142.221 50.4297 142.484 50.6888C142.747 50.9436 142.878 51.3131 142.878 51.7973V53.8552H142.305V51.8802C142.305 51.5319 142.219 51.2665 142.045 51.0838C141.871 50.8969 141.633 50.8035 141.332 50.8035C141.027 50.8035 140.783 50.899 140.6 51.0902C140.422 51.2813 140.332 51.5595 140.332 51.9248V53.8552H139.754V50.3639H140.332V50.8608C140.448 50.6824 140.602 50.5443 140.798 50.4467C140.997 50.349 141.215 50.3002 141.453 50.3002ZM145.878 52.0968C145.878 51.74 145.95 51.4278 146.094 51.1602C146.239 50.8884 146.436 50.6781 146.686 50.5295C146.941 50.3809 147.223 50.3065 147.532 50.3065C147.839 50.3065 148.103 50.3723 148.328 50.504C148.554 50.6357 148.721 50.8014 148.831 51.001V50.3639H149.417V53.8552H148.831V53.2053C148.717 53.4092 148.545 53.5791 148.316 53.715C148.091 53.8467 147.828 53.9125 147.526 53.9125C147.217 53.9125 146.937 53.8361 146.686 53.6832C146.436 53.5303 146.239 53.3157 146.094 53.0397C145.95 52.7637 145.878 52.4493 145.878 52.0968ZM148.831 52.1032C148.831 51.8399 148.778 51.6105 148.672 51.4151C148.566 51.2197 148.421 51.071 148.239 50.9691C148.061 50.8629 147.864 50.8098 147.648 50.8098C147.431 50.8098 147.234 50.8608 147.055 50.9627C146.877 51.0647 146.735 51.2133 146.629 51.4087C146.523 51.6041 146.47 51.8335 146.47 52.0968C146.47 52.3644 146.523 52.598 146.629 52.7976C146.735 52.993 146.877 53.1437 147.055 53.2499C147.234 53.3519 147.431 53.4028 147.648 53.4028C147.864 53.4028 148.061 53.3519 148.239 53.2499C148.421 53.1437 148.566 52.993 148.672 52.7976C148.778 52.598 148.831 52.3665 148.831 52.1032ZM152.381 50.3002C152.806 50.3002 153.149 50.4297 153.413 50.6888C153.675 50.9436 153.807 51.3131 153.807 51.7973V53.8552H153.234V51.8802C153.234 51.5319 153.147 51.2665 152.973 51.0838C152.799 50.8969 152.561 50.8035 152.26 50.8035C151.955 50.8035 151.711 50.899 151.528 51.0902C151.35 51.2813 151.261 51.5595 151.261 51.9248V53.8552H150.682V50.3639H151.261V50.8608C151.376 50.6824 151.53 50.5443 151.726 50.4467C151.925 50.349 152.144 50.3002 152.381 50.3002ZM154.823 52.0968C154.823 51.74 154.895 51.4278 155.04 51.1602C155.184 50.8884 155.381 50.6781 155.631 50.5295C155.886 50.3809 156.17 50.3065 156.485 50.3065C156.756 50.3065 157.009 50.3702 157.241 50.4977C157.475 50.6208 157.653 50.7844 157.776 50.9882V49.1406H158.362V53.8552H157.776V53.199C157.662 53.4071 157.492 53.5791 157.267 53.715C157.043 53.8467 156.779 53.9125 156.478 53.9125C156.168 53.9125 155.886 53.8361 155.631 53.6832C155.381 53.5303 155.184 53.3157 155.04 53.0397C154.895 52.7637 154.823 52.4493 154.823 52.0968ZM157.776 52.1032C157.776 51.8399 157.723 51.6105 157.617 51.4151C157.511 51.2197 157.367 51.071 157.185 50.9691C157.006 50.8629 156.809 50.8098 156.592 50.8098C156.376 50.8098 156.178 50.8608 156 50.9627C155.822 51.0647 155.68 51.2133 155.574 51.4087C155.468 51.6041 155.415 51.8335 155.415 52.0968C155.415 52.3644 155.468 52.598 155.574 52.7976C155.68 52.993 155.822 53.1437 156 53.2499C156.178 53.3519 156.376 53.4028 156.592 53.4028C156.809 53.4028 157.006 53.3519 157.185 53.2499C157.367 53.1437 157.511 52.993 157.617 52.7976C157.723 52.598 157.776 52.3665 157.776 52.1032ZM164.792 51.9757C164.792 52.0861 164.787 52.203 164.774 52.3261H161.986C162.007 52.6702 162.123 52.9399 162.336 53.1353C162.552 53.3264 162.813 53.422 163.119 53.422C163.369 53.422 163.577 53.3646 163.742 53.2499C163.912 53.131 164.031 52.9739 164.098 52.7785H164.723C164.629 53.1141 164.442 53.388 164.162 53.6004C163.883 53.8085 163.534 53.9125 163.119 53.9125C162.788 53.9125 162.49 53.8382 162.228 53.6895C161.969 53.5409 161.765 53.3307 161.616 53.0588C161.468 52.7828 161.393 52.4642 161.393 52.1032C161.393 51.7421 161.466 51.4257 161.61 51.1539C161.754 50.882 161.956 50.674 162.215 50.5295C162.478 50.3809 162.78 50.3065 163.119 50.3065C163.45 50.3065 163.742 50.3787 163.997 50.5231C164.251 50.6676 164.446 50.8672 164.583 51.122C164.723 51.3726 164.792 51.6572 164.792 51.9757ZM164.194 51.8547C164.194 51.6338 164.145 51.4449 164.048 51.2877C163.95 51.1263 163.817 51.0052 163.647 50.9245C163.482 50.8396 163.297 50.7971 163.093 50.7971C162.801 50.7971 162.55 50.8906 162.342 51.0774C162.138 51.2643 162.022 51.5234 161.992 51.8547H164.194ZM165.627 52.0968C165.627 51.74 165.699 51.4278 165.844 51.1602C165.988 50.8884 166.185 50.6781 166.435 50.5295C166.69 50.3809 166.972 50.3065 167.282 50.3065C167.587 50.3065 167.852 50.3723 168.077 50.504C168.302 50.6357 168.47 50.8014 168.58 51.001V50.3639H169.166V53.8552H168.58V53.2053C168.466 53.4092 168.294 53.5791 168.064 53.715C167.84 53.8467 167.577 53.9125 167.276 53.9125C166.965 53.9125 166.686 53.8361 166.435 53.6832C166.185 53.5303 165.988 53.3157 165.844 53.0397C165.699 52.7637 165.627 52.4493 165.627 52.0968ZM168.58 52.1032C168.58 51.8399 168.527 51.6105 168.421 51.4151C168.315 51.2197 168.171 51.071 167.989 50.9691C167.81 50.8629 167.613 50.8098 167.396 50.8098C167.18 50.8098 166.982 50.8608 166.804 50.9627C166.626 51.0647 166.484 51.2133 166.378 51.4087C166.272 51.6041 166.219 51.8335 166.219 52.0968C166.219 52.3644 166.272 52.598 166.378 52.7976C166.484 52.993 166.626 53.1437 166.804 53.2499C166.982 53.3519 167.18 53.4028 167.396 53.4028C167.613 53.4028 167.81 53.3519 167.989 53.2499C168.171 53.1437 168.315 52.993 168.421 52.7976C168.527 52.598 168.58 52.3665 168.58 52.1032ZM171.01 50.9309C171.112 50.7313 171.257 50.5762 171.443 50.4658C171.633 50.3554 171.865 50.3002 172.137 50.3002V50.899H171.984C171.335 50.899 171.01 51.2515 171.01 51.9566V53.8552H170.431V50.3639H171.01V50.9309ZM174.791 50.3002C175.216 50.3002 175.559 50.4297 175.822 50.6888C176.085 50.9436 176.217 51.3131 176.217 51.7973V53.8552H175.644V51.8802C175.644 51.5319 175.557 51.2665 175.383 51.0838C175.209 50.8969 174.971 50.8035 174.67 50.8035C174.364 50.8035 174.121 50.899 173.938 51.0902C173.76 51.2813 173.671 51.5595 173.671 51.9248V53.8552H173.091V50.3639H173.671V50.8608C173.786 50.6824 173.941 50.5443 174.136 50.4467C174.334 50.349 174.553 50.3002 174.791 50.3002ZM178.2 49.4146L178.13 52.6001H177.646L177.576 49.4146H178.2ZM177.914 53.8934C177.803 53.8934 177.71 53.8552 177.634 53.7787C177.558 53.7023 177.519 53.6088 177.519 53.4984C177.519 53.388 177.558 53.2945 177.634 53.2181C177.71 53.1416 177.803 53.1034 177.914 53.1034C178.02 53.1034 178.11 53.1416 178.181 53.2181C178.258 53.2945 178.295 53.388 178.295 53.4984C178.295 53.6088 178.258 53.7023 178.181 53.7787C178.11 53.8552 178.02 53.8934 177.914 53.8934Z" fill="black"/>
</g>
<defs>
<clipPath id="clip0_2211_67234">
<rect width="198" height="66" fill="white"/>
</clipPath>
</defs>
</svg>
