<svg width="48" height="47" viewBox="0 0 48 47" fill="none" xmlns="http://www.w3.org/2000/svg">
<path d="M37.2388 31.3127C37.2448 33.6433 36.726 35.9478 35.7175 38.0694C34.7092 40.1909 33.2348 42.0799 31.3949 43.6077C30.1889 44.6216 31.0148 46.5193 32.6208 46.3663C33.6946 46.266 34.7568 46.0738 35.7948 45.7924C38.5816 45.0406 41.1151 43.6063 43.1449 41.6313C45.1747 39.6562 46.6306 37.2086 47.3687 34.5304C48.0707 32.0987 48.1754 29.5447 47.6748 27.0679C47.1741 24.591 46.0816 22.2585 44.4827 20.2522C42.8837 18.246 40.8215 16.6206 38.4571 15.5028C36.0927 14.385 33.4902 13.8053 30.8528 13.8086C30.1545 13.8082 29.4566 13.8465 28.7629 13.9235C27.1749 14.1147 26.7729 16.1444 28.1829 16.8733C33.5848 19.651 37.2428 25.0706 37.2428 31.3127H37.2388ZM15.809 36.1201C13.3673 36.1275 10.9523 35.6339 8.727 34.6725C6.50169 33.7112 4.5178 32.3046 2.90915 30.5476C1.84516 29.3997 -0.144816 30.184 0.0171824 31.7145C0.121634 32.7384 0.322446 33.7514 0.617176 34.7409C2.20516 40.1413 6.74511 44.3557 12.4311 45.7713C23.8849 48.6256 34.1708 40.4665 34.1708 30.0291C34.1708 29.3596 34.1308 28.69 34.0508 28.0396C33.8509 26.5245 31.7209 26.1419 30.9568 27.4848C29.4823 30.0983 27.2954 32.281 24.6285 33.8014C21.9614 35.3218 18.9138 36.123 15.809 36.1201ZM10.7611 15.6872C10.7555 13.3564 11.275 11.0517 12.2841 8.93009C13.2933 6.80851 14.7683 4.91972 16.609 3.39229C17.815 2.37647 16.989 0.480676 15.383 0.633718C14.3036 0.734861 13.2348 0.920406 12.187 1.18849C9.40274 1.94406 6.87187 3.37969 4.84331 5.35426C2.81475 7.32882 1.35831 9.77436 0.617176 12.4504C-0.0847931 14.8821 -0.189551 17.4361 0.311085 19.913C0.811718 22.3898 1.9042 24.7224 3.50319 26.7286C5.10217 28.7348 7.16438 30.3603 9.52875 31.478C11.8931 32.5958 14.4956 33.1756 17.133 33.1722C17.837 33.1722 18.541 33.1339 19.2229 33.0574C20.811 32.8661 21.213 30.8345 19.803 30.1075C17.0714 28.7134 14.7874 26.6352 13.1951 24.0952C11.6028 21.5552 10.7602 18.649 10.7611 15.6872ZM32.2009 10.8798C34.6425 10.8725 37.0575 11.3662 39.2828 12.3275C41.5082 13.2888 43.4921 14.6954 45.1007 16.4524C46.1607 17.6002 48.1527 16.8159 47.9907 15.2855C47.8863 14.2608 47.6855 13.2473 47.3907 12.2572C45.8007 6.85676 41.2608 2.6443 35.5728 1.22675C24.139 -1.6466 13.8531 6.51242 13.8531 16.9498C13.8531 17.6193 13.893 18.289 13.973 18.9413C14.173 20.4545 16.309 20.8371 17.071 19.4961C18.5438 16.8874 20.7279 14.7089 23.3911 13.1922C26.0543 11.6755 29.0973 10.8771 32.1968 10.8817L32.2009 10.8798Z" fill="#35CC33"/>
</svg>
